<!DOCTYPE svg PUBLIC "-//W3C//DTD SVG 1.1//EN" "http://www.w3.org/Graphics/SVG/1.1/DTD/svg11.dtd">
<!-- Uploaded to: SVG Repo, www.svgrepo.com, Transformed by: SVG Repo Mixer Tools -->
<svg version="1.1" id="Layer_1" xmlns="http://www.w3.org/2000/svg" xmlns:xlink="http://www.w3.org/1999/xlink" viewBox="-50.5 -50.5 606.00 606.00" xml:space="preserve" width="800px" height="800px" fill="#ffffff" stroke="#ffffff" stroke-width="5.05" transform="matrix(-1, 0, 0, 1, 0, 0)rotate(0)">
<g id="SVGRepo_bgCarrier" stroke-width="0"/>
<g id="SVGRepo_tracerCarrier" stroke-linecap="round" stroke-linejoin="round"/>
<g id="SVGRepo_iconCarrier"> <circle style="fill:#000000;" cx="252.5" cy="252.5" r="252.5"/> <path style="fill:#000000;" d="M368.1,101.2H136.9c-4,0-7.2,3.2-7.2,7.2v158.9c0,4,3.2,7.2,7.2,7.2h231.3c4,0,7.2-3.2,7.2-7.2V108.4 C375.3,104.4,372.1,101.2,368.1,101.2z"/> <rect x="147.8" y="119.3" style="fill:#000000;" width="209.5" height="137.1"/> <polygon style="fill:#000000;" points="405.5,372.3 99.5,372.3 129.7,288.3 375.3,288.3 "/> <g> <polygon style="fill:#000000;" points="375.3,330.2 129.7,330.2 140.7,295.9 364.3,295.9 "/> <polygon style="fill:#000000;" points="285.7,361 219.3,361 221.3,336.2 283.7,336.2 "/> </g> </g>
</svg>