<!DOCTYPE svg PUBLIC "-//W3C//DTD SVG 1.1//EN" "http://www.w3.org/Graphics/SVG/1.1/DTD/svg11.dtd">
<!-- Uploaded to: SVG Repo, www.svgrepo.com, Transformed by: SVG Repo Mixer Tools -->
<svg fill="#ffffff" width="800px" height="800px" viewBox="-2.4 -2.4 28.80 28.80" xmlns="http://www.w3.org/2000/svg" stroke="#ffffff">
<g id="SVGRepo_bgCarrier" stroke-width="0">
<rect x="-2.4" y="-2.4" width="28.80" height="28.80" rx="14.4" fill="#000000" strokewidth="0"/>
</g>
<g id="SVGRepo_tracerCarrier" stroke-linecap="round" stroke-linejoin="round"/>
<g id="SVGRepo_iconCarrier">
<path d="M12.022,22a10.017,10.017,0,0,0,9.929-8.632,4.828,4.828,0,0,0-.47-2.895C18.738,5.26,11.019,12.475,11.02,6c0-2.794,0-4-2-4C4,2,2,7.694,2,12A10.011,10.011,0,0,0,12.022,22ZM15.5,12A2.5,2.5,0,1,1,13,14.5,2.5,2.5,0,0,1,15.5,12ZM9,16.5A1.5,1.5,0,1,1,7.5,15,1.5,1.5,0,0,1,9,16.5ZM6.5,6A1.5,1.5,0,1,1,5,7.5,1.5,1.5,0,0,1,6.5,6Zm-1,4.5A1.5,1.5,0,1,1,4,12,1.5,1.5,0,0,1,5.5,10.5Z"/>
</g>
</svg>